<svg xmlns="http://www.w3.org/2000/svg" viewBox="0 0 24 24" id="zoom-in" width="2px" height="2px"><path d="M13 9.5a.75.75 0 0 1-.75.75h-2v2a.75.75 0 0 1-1.5 0v-2h-2a.75.75 0 0 1 0-1.5h2v-2a.75.75 0 0 1 1.5 0v2h2a.75.75 0 0 1 .75.75zm10.905 12.048A3.222 3.222 0 0 1 20.753 24a3.235 3.235 0 0 1-2.244-.897c-.02-.016-.039-.034-.058-.052l-2.793-2.793a1.75 1.75 0 0 1 0-2.475l.532-.533-.531-.531A9.448 9.448 0 0 1 9.5 19C4.262 19 0 14.738 0 9.5S4.262 0 9.5 0 19 4.262 19 9.5c0 2.35-.862 4.498-2.28 6.159l.531.531.532-.533a1.753 1.753 0 0 1 2.476 0l2.792 2.793a3.264 3.264 0 0 1 .854 3.098zM17.5 9.5c0-4.411-3.589-8-8-8s-8 3.589-8 8 3.589 8 8 8 8-3.589 8-8zm-.782 9.697 2.012 2.012 2.479-2.479-2.011-2.012a.25.25 0 0 0-.354 0l-2.125 2.126a.25.25 0 0 0-.001.353zm5.514.632-2.403 2.403c.399.25.878.333 1.368.214a1.728 1.728 0 0 0 1.249-1.25 1.76 1.76 0 0 0-.214-1.367z"></path></svg>