<svg xmlns="http://www.w3.org/2000/svg" enable-background="new 0 0 32 32" viewBox="0 0 32 32" id="zoom-out"><path d="M11.47998,22.45996c2.34003,0,4.67004-0.75,6.63-2.22998L20.01001,22.13l-0.85004,0.85999c-0.58997,0.58002-0.58997,1.52997,0,2.12L24.31,30.26996C25.10999,31.06,26.16998,31.5,27.28998,31.5s2.17999-0.44,2.98004-1.23004C31.06,29.46997,31.5,28.40997,31.5,27.28998c0-1.13-0.44-2.17999-1.22998-2.97998l-5.16003-5.15002c-0.27997-0.28998-0.65997-0.44-1.06-0.44c-0.39996,0-0.77997,0.15002-1.06,0.44L22.13,20.01001l-1.90002-1.90002c1.44-1.90002,2.23999-4.20001,2.23999-6.63c0-2.92999-1.14996-5.69-3.21997-7.77002c-4.28003-4.27997-11.25-4.27997-15.53998,0c-4.28003,4.29004-4.28003,11.25,0,15.54004C5.84998,21.39001,8.66998,22.45996,11.47998,22.45996z M5.83002,5.82996C7.39001,4.27997,9.44,3.5,11.47998,3.5c2.04004,0,4.09003,0.77997,5.65002,2.32996c1.5,1.51001,2.33997,3.52002,2.33997,5.65002S18.63,15.62,17.13,17.13c-3.12,3.10999-8.17999,3.10999-11.29999,0C2.71997,14.01001,2.71997,8.95001,5.83002,5.82996z"></path><path d="M7.38116,12.98004h8.19818c0.82874,0,1.50024-0.67145,1.50024-1.50024c0-0.82874-0.67151-1.50024-1.50024-1.50024H7.38116c-0.82874,0-1.50024,0.67151-1.50024,1.50024C5.88092,12.30859,6.55243,12.98004,7.38116,12.98004z"></path></svg>